Coordinates
version=1
nRows=22
nColumns=24
inDegrees=yes

Units are S.I. units (second, meters, Newtons, ...)
Angles are in degrees.

endheader
time	pelvis_tilt	pelvis_list	pelvis_rotation	pelvis_tx	pelvis_ty	pelvis_tz	hip_flexion_r	hip_adduction_r	hip_rotation_r	knee_angle_r	ankle_angle_r	subtalar_angle_r	mtp_angle_r	hip_flexion_l	hip_adduction_l	hip_rotation_l	knee_angle_l	ankle_angle_l	subtalar_angle_l	mtp_angle_l	lumbar_extension	lumbar_bending	lumbar_rotation
      0.78766667	      0.69577721	     -0.99405054	      1.98108343	     -0.35302826	      0.99675792	      0.30739855	     10.74416121	      5.23888352	     -6.84978614	    -17.62408212	      7.23572608	     -5.16197402	      4.68443840	     18.69228553	     -0.95042328	      0.99410082	    -69.28961418	     -4.13863497	     -9.36174516	      0.64069159	     -2.12726397	      3.82477024	      1.18340231
      0.79183333	      0.77084748	     -0.91291041	      1.85296398	     -0.34789449	      0.99752919	      0.30769004	     10.15955477	      5.18513424	     -6.85196756	    -17.29969357	      7.35744548	     -4.80392220	      4.71825443	     19.17800863	     -0.87708033	      0.94797715	    -68.98533869	     -3.61102312	     -9.57447376	      0.55495778	     -2.26866371	      3.73835071	      1.42236055
      0.79600000	      0.81789811	     -0.83192043	      1.71029875	     -0.34277092	      0.99823738	      0.30799490	      9.61224989	      5.12993293	     -6.84052056	    -16.98956757	      7.47569819	     -4.49946077	      4.74912671	     19.67772072	     -0.80934270	      0.88456129	    -68.62692589	     -3.07800524	     -9.78790890	      0.47237583	     -2.37380802	      3.65276909	      1.59627923
      0.80016667	      0.83807790	     -0.77052666	      1.55812684	     -0.33767691	      0.99885360	      0.30832287	      9.09916897	      5.09877431	     -6.80079928	    -16.68543346	      7.58426819	     -4.28239346	      4.76606209	     20.20011985	     -0.77185671	      0.80797734	    -68.23303916	     -2.52589544	     -9.99678742	      0.43232087	     -2.45556540	      3.58212195	      1.70446752
      0.80433333	      0.91345565	     -0.68247437	      1.40450699	     -0.33253697	      0.99955192	      0.30862201	      8.50883702	      5.02984975	     -6.80111339	    -16.34928613	      7.70504009	     -3.89630217	      4.79411856	     20.62614233	     -0.70022064	      0.73623612	    -67.75271301	     -2.01646715	    -10.11250619	      0.34731994	     -2.59652273	      3.49375017	      1.95608422
      0.80850000	      0.92320779	     -0.61562788	      1.22335120	     -0.32744065	      1.00007767	      0.30896709	      8.01287725	      4.98544739	     -6.76346705	    -16.05624898	      7.82185365	     -3.62711475	      4.81233047	     21.12055942	     -0.66986406	      0.62483229	    -67.24965659	     -1.48820826	    -10.27106387	      0.29727852	     -2.65864639	      3.41922130	      2.08592027
      0.81266667	      0.99287519	     -0.54027011	      1.06726896	     -0.32230860	      1.00070095	      0.30925222	      7.42578287	      4.92339135	     -6.76768017	    -15.71120265	      7.93730812	     -3.23260550	      4.83771094	     21.52105673	     -0.61390634	      0.55226361	    -66.66966776	     -1.00195748	    -10.34199189	      0.20835728	     -2.79848196	      3.34335247	      2.32793805
      0.81683333	      1.03137502	     -0.47887298	      0.88736374	     -0.31720570	      1.00121106	      0.30957682	      6.88637834	      4.87749779	     -6.74355847	    -15.38967371	      8.05481617	     -2.89003602	      4.86009841	     21.94560577	     -0.58824009	      0.44855457	    -66.05638068	     -0.52058378	    -10.41806955	      0.12770205	     -2.89896932	      3.27822118	      2.50674345
      0.82100000	      1.02969015	     -0.42542870	      0.68776183	     -0.31212540	      1.00160984	      0.30992118	      6.40461306	      4.83992018	     -6.68993810	    -15.09368893	      8.16317113	     -2.61531017	      4.87488277	     22.40033132	     -0.58041519	      0.32242346	    -65.40416920	     -0.03849670	    -10.50647493	      0.08001340	     -2.95057005	      3.23185025	      2.63122691
      0.82516667	      1.08345551	     -0.36711563	      0.52848597	     -0.30700692	      1.00207519	      0.31019961	      5.83895793	      4.78594056	     -6.71430952	    -14.75003571	      8.27365352	     -2.20109873	      4.89764672	     22.77250216	     -0.54902136	      0.24428514	    -64.68752407	      0.38022049	    -10.50600976	     -0.01667332	     -3.06883881	      3.16804142	      2.87993188
      0.82933333	      1.12589005	     -0.31181644	      0.34466190	     -0.30189656	      1.00248563	      0.31051292	      5.29461334	      4.73634289	     -6.70297793	    -14.42276517	      8.38133071	     -1.83738006	      4.91989044	     23.13681967	     -0.53346457	      0.13431728	    -63.92535472	      0.78682335	    -10.53844372	     -0.11083888	     -3.17258410	      3.10728975	      3.05066936
      0.83350000	      1.15355549	     -0.27567899	      0.14082077	     -0.29681613	      1.00282146	      0.31082698	      4.77343798	      4.70869643	     -6.63819849	    -14.10412585	      8.48042391	     -1.54865798	      4.93499554	     23.50273069	     -0.54593616	      0.00692450	    -63.12518860	      1.19038374	    -10.57035879	     -0.16360535	     -3.26072079	      3.08561492	      3.16099101
      0.83766667	      1.17754385	     -0.24292300	     -0.04021660	     -0.29171857	      1.00311263	      0.31112695	      4.24655784	      4.68100941	     -6.60504879	    -13.76369134	      8.57265090	     -1.21490420	      4.95129874	     23.85696552	     -0.55483371	     -0.09481027	    -62.28147547	      1.55390604	    -10.55249176	     -0.22376844	     -3.34549623	      3.05530177	      3.32354409
      0.84183333	      1.22034939	     -0.20467594	     -0.21826680	     -0.28661403	      1.00338104	      0.31140156	      3.70515175	      4.63912953	     -6.59922421	    -13.43602518	      8.67071932	     -0.85428046	      4.97070000	     24.16957886	     -0.55541827	     -0.19797940	    -61.38794896	      1.88048933	    -10.52919430	     -0.29462303	     -3.44979395	      3.01703209	      3.49608082
      0.84600000	      1.27511003	     -0.16994408	     -0.36132379	     -0.28149102	      1.00365078	      0.31161718	      3.14251344	      4.59322397	     -6.65729787	    -13.08939511	      8.76180650	     -0.43836612	      5.00105947	     24.45140925	     -0.53939717	     -0.25846958	    -60.44412518	      2.15555380	    -10.50207971	     -0.41733199	     -3.56718003	      2.97938094	      3.69420281
      0.85016667	      1.28772441	     -0.14512148	     -0.55499360	     -0.27639451	      1.00380609	      0.31190172	      2.64026390	      4.56551537	     -6.60201051	    -12.76860466	      8.85705898	     -0.13000021	      5.02414931	     24.75856906	     -0.56281556	     -0.38049675	    -59.46352347	      2.42631635	    -10.49473063	     -0.49510631	     -3.63515905	      2.95982719	      3.79366669
      0.85433333	      1.32603593	     -0.11307741	     -0.69654935	     -0.27126628	      1.00395581	      0.31207818	      2.11152935	      4.51201626	     -6.68321487	    -12.45235035	      8.93902830	      0.34469348	      5.08812803	     25.01864475	     -0.54168889	     -0.43580541	    -58.43497347	      2.67904869	    -10.49618008	     -0.73600748	     -3.72910840	      2.92863952	      3.98035557
      0.85850000	      1.35137652	     -0.08826986	     -0.87393522	     -0.26615593	      1.00406598	      0.31233610	      1.58595203	      4.48527292	     -6.59193752	    -12.11249893	      9.04565136	      0.57358056	      5.11020452	     25.26891080	     -0.55658402	     -0.54043020	    -57.35764897	      2.86496637	    -10.45907296	     -0.79992890	     -3.81341017	      2.91015931	      4.04257446
      0.86266667	      1.40956498	     -0.07932536	     -1.00118707	     -0.26099833	      1.00416210	      0.31252761	      1.01274152	      4.46604153	     -6.62040903	    -11.74894670	      9.12256786	      0.88116642	      5.14374499	     25.47017707	     -0.56780418	     -0.60048484	    -56.25044095	      3.05115396	    -10.43121800	     -0.90576634	     -3.92659828	      2.89540687	      4.18275883
      0.86683333	      1.40765918	     -0.07827508	     -1.16159820	     -0.25590128	      1.00413442	      0.31273647	      0.52915851	      4.45816402	     -6.54614130	    -11.42896999	      9.21686190	      1.13688221	      5.16876837	     25.71841836	     -0.59392261	     -0.67433202	    -55.10371183	      3.20953322	    -10.41447808	     -0.97523187	     -3.97996390	      2.91012347	      4.25944400
      0.87100000	      1.45606870	     -0.05683050	     -1.27758343	     -0.25072507	      1.00415281	      0.31288616	     -0.02579872	      4.41965762	     -6.58800365	    -11.08122283	      9.30553515	      1.44113842	      5.20604318	     25.88413747	     -0.58261589	     -0.73175425	    -53.90147222	      3.33467210	    -10.41579957	     -1.08763512	     -4.08037769	      2.88380751	      4.38511148
      0.87516667	      1.47859867	     -0.04475123	     -1.39626200	     -0.24558037	      1.00408864	      0.31302064	     -0.53856500	      4.39080512	     -6.59321850	    -10.75899228	      9.39550294	      1.74877933	      5.25472184	     26.05937838	     -0.57240342	     -0.76734341	    -52.66001544	      3.44198812	    -10.42316040	     -1.23020231	     -4.15935347	      2.88349948	      4.48225830
